<svg xmlns="http://www.w3.org/2000/svg" xmlns:xlink="http://www.w3.org/1999/xlink" width="500" zoomAndPan="magnify" viewBox="0 0 375 374.999991" height="500" preserveAspectRatio="xMidYMid meet" version="1.2"><defs><clipPath id="1f2fe7fe08"><path d="M 9.609375 58 L 181 58 L 181 360 L 9.609375 360 Z M 9.609375 58 "/></clipPath><clipPath id="aaa7eae708"><path d="M 191 74 L 365.109375 74 L 365.109375 375 L 191 375 Z M 191 74 "/></clipPath></defs><g id="1268e0d84b"><g clip-rule="nonzero" clip-path="url(#1f2fe7fe08)"><path style=" stroke:none;fill-rule:nonzero;fill:#a915ff;fill-opacity:1;" d="M 180.523438 359.332031 L 9.550781 359.332031 L 9.550781 350.074219 L 18.417969 341.789062 L 18.417969 309.632812 L 23.484375 284.78125 L 23.484375 221.195312 L 73.511719 221.195312 C 73.511719 221.195312 74.816406 205.375 81.128906 203.78125 L 81.128906 167.671875 C 81.128906 167.671875 69.386719 158.339844 94.40625 154.199219 L 94.40625 130.808594 C 94.40625 130.808594 91.242188 123.988281 102 120.820312 L 113.953125 104.246094 C 113.953125 104.246094 122.898438 58.695312 180.203125 58.695312 "/></g><path style=" stroke:none;fill-rule:nonzero;fill:#a915ff;fill-opacity:1;" d="M 113.953125 104.246094 L 119.0625 104.246094 C 119.0625 104.246094 167.859375 100.355469 180.839844 100.355469 "/><path style=" stroke:none;fill-rule:nonzero;fill:#a915ff;fill-opacity:1;" d="M 102 120.820312 C 102 120.820312 164.695312 115.707031 180.203125 115.707031 "/><path style=" stroke:none;fill-rule:nonzero;fill:#a915ff;fill-opacity:1;" d="M 94.089844 129.347656 C 94.089844 129.347656 157.09375 123.746094 179.894531 123.746094 "/><path style=" stroke:none;fill-rule:nonzero;fill:#a915ff;fill-opacity:1;" d="M 94.40625 154.199219 C 94.40625 154.199219 158.996094 149.324219 177.992188 149.324219 "/><path style=" stroke:none;fill-rule:nonzero;fill:#a915ff;fill-opacity:1;" d="M 81.128906 167.671875 C 81.128906 167.671875 135.566406 161.507812 177.042969 161.507812 "/><path style=" stroke:none;fill-rule:nonzero;fill:#a915ff;fill-opacity:1;" d="M 81.109375 203.167969 C 81.109375 203.167969 144.203125 199.160156 175.230469 198.917969 "/><path style=" stroke:none;fill-rule:nonzero;fill:#a915ff;fill-opacity:1;" d="M 24.433594 241.902344 L 83.804688 242.140625 L 83.804688 219.875 L 115.296875 215.347656 L 175.460938 215.105469 "/><path style=" stroke:none;fill-rule:nonzero;fill:#a915ff;fill-opacity:1;" d="M 23.484375 286 C 24.960938 286.292969 179.257812 286 179.257812 286 "/><path style=" stroke:none;fill-rule:nonzero;fill:#a915ff;fill-opacity:1;" d="M 43.746094 308.902344 L 64.957031 308.902344 L 64.957031 289.898438 L 43.746094 289.898438 Z M 43.746094 308.902344 "/><path style=" stroke:none;fill-rule:nonzero;fill:#a915ff;fill-opacity:1;" d="M 97.257812 309.679688 L 97.25 290.3125 L 111.597656 290.3125 L 111.503906 309.921875 "/><path style=" stroke:none;fill-rule:nonzero;fill:#a915ff;fill-opacity:1;" d="M 126.972656 309.476562 L 126.964844 290.109375 L 141.3125 290.109375 L 141.21875 309.71875 "/><path style=" stroke:none;fill-rule:nonzero;fill:#a915ff;fill-opacity:1;" d="M 159.328125 309.476562 L 159.328125 290.109375 L 173.667969 290.109375 L 173.578125 309.71875 "/><path style=" stroke:none;fill-rule:nonzero;fill:#a915ff;fill-opacity:1;" d="M 74.449219 323.761719 L 71.285156 323.761719 C 66.53125 323.761719 65.585938 327.171875 65.585938 327.171875 L 65.585938 341.546875 L 72.230469 341.546875 "/><path style=" stroke:none;fill-rule:nonzero;fill:#a915ff;fill-opacity:1;" d="M 73.636719 323.761719 C 78.390625 323.761719 79.34375 327.171875 79.34375 327.171875 L 79.34375 341.546875 L 70.964844 341.546875 "/><path style=" stroke:none;fill-rule:nonzero;fill:#a915ff;fill-opacity:1;" d="M 107.054688 324.007812 L 103.894531 324.007812 C 99.144531 324.007812 98.191406 327.417969 98.191406 327.417969 L 98.191406 341.789062 L 104.84375 341.789062 "/><path style=" stroke:none;fill-rule:nonzero;fill:#a915ff;fill-opacity:1;" d="M 106.257812 324.007812 C 111 324.007812 111.957031 327.417969 111.957031 327.417969 L 111.957031 341.789062 L 103.578125 341.789062 "/><path style=" stroke:none;fill-rule:nonzero;fill:#a915ff;fill-opacity:1;" d="M 139.984375 323.761719 L 136.820312 323.761719 C 132.074219 323.761719 131.121094 327.171875 131.121094 327.171875 L 131.121094 341.546875 "/><path style=" stroke:none;fill-rule:nonzero;fill:#a915ff;fill-opacity:1;" d="M 139.179688 323.761719 C 143.929688 323.761719 144.878906 327.171875 144.878906 327.171875 L 144.878906 341.546875 "/><path style=" stroke:none;fill-rule:nonzero;fill:#a915ff;fill-opacity:1;" d="M 172.464844 324.085938 L 169.296875 324.085938 C 164.546875 324.085938 163.597656 327.496094 163.597656 327.496094 L 163.597656 341.871094 "/><path style=" stroke:none;fill-rule:nonzero;fill:#a915ff;fill-opacity:1;" d="M 171.65625 324.085938 C 176.402344 324.085938 177.355469 327.496094 177.355469 327.496094 L 177.355469 341.871094 "/><path style=" stroke:none;fill-rule:nonzero;fill:#a915ff;fill-opacity:1;" d="M 202.613281 324.085938 L 199.445312 324.085938 C 194.695312 324.085938 193.746094 327.496094 193.746094 327.496094 L 193.746094 341.871094 "/><path style=" stroke:none;fill-rule:nonzero;fill:#a915ff;fill-opacity:1;" d="M 201.804688 324.085938 C 206.558594 324.085938 207.503906 327.496094 207.503906 327.496094 L 207.503906 341.871094 "/><path style=" stroke:none;fill-rule:nonzero;fill:#a915ff;fill-opacity:1;" d="M 231.339844 324.085938 L 228.171875 324.085938 C 223.421875 324.085938 222.472656 327.496094 222.472656 327.496094 L 222.472656 341.871094 "/><path style=" stroke:none;fill-rule:nonzero;fill:#a915ff;fill-opacity:1;" d="M 230.527344 324.085938 C 235.277344 324.085938 236.230469 327.496094 236.230469 327.496094 L 236.230469 341.871094 "/><path style=" stroke:none;fill-rule:nonzero;fill:#a915ff;fill-opacity:1;" d="M 263.753906 323.761719 L 260.589844 323.761719 C 255.84375 323.761719 254.890625 327.171875 254.890625 327.171875 L 254.890625 341.546875 "/><path style=" stroke:none;fill-rule:nonzero;fill:#a915ff;fill-opacity:1;" d="M 262.949219 323.761719 C 267.699219 323.761719 268.648438 327.171875 268.648438 327.171875 L 268.648438 341.546875 "/><path style=" stroke:none;fill-rule:nonzero;fill:#a915ff;fill-opacity:1;" d="M 295.519531 323.84375 L 292.355469 323.84375 C 287.609375 323.84375 286.65625 327.253906 286.65625 327.253906 L 286.65625 341.628906 "/><path style=" stroke:none;fill-rule:nonzero;fill:#a915ff;fill-opacity:1;" d="M 294.714844 323.84375 C 299.46875 323.84375 300.421875 327.253906 300.421875 327.253906 L 300.421875 341.628906 "/><path style=" stroke:none;fill-rule:nonzero;fill:#a915ff;fill-opacity:1;" d="M 153.542969 323.761719 L 150.375 323.761719 C 145.625 323.761719 144.675781 327.171875 144.675781 327.171875 L 144.675781 341.546875 L 151.320312 341.546875 "/><path style=" stroke:none;fill-rule:nonzero;fill:#a915ff;fill-opacity:1;" d="M 152.734375 323.761719 C 157.488281 323.761719 158.433594 327.171875 158.433594 327.171875 L 158.433594 341.546875 L 150.054688 341.546875 "/><path style=" stroke:none;fill-rule:nonzero;fill:#a915ff;fill-opacity:1;" d="M 179.257812 359.332031 L 352.496094 359.332031 L 352.496094 350.074219 L 343.632812 341.789062 L 343.632812 309.632812 L 338.570312 284.78125 L 338.570312 221.195312 L 288.542969 221.195312 C 288.542969 221.195312 287.230469 205.375 280.925781 203.78125 L 280.925781 167.671875 C 280.925781 167.671875 292.660156 158.339844 267.648438 154.199219 L 267.648438 130.808594 C 267.648438 130.808594 270.8125 123.988281 260.046875 120.820312 L 248.09375 104.246094 C 248.09375 104.246094 239.148438 58.695312 181.84375 58.695312 L 178.9375 58.695312 "/><path style=" stroke:none;fill-rule:nonzero;fill:#a915ff;fill-opacity:1;" d="M 198.945312 59.671875 L 198.945312 53.582031 L 193.238281 52.605469 L 192.925781 49.195312 L 189.125 48.953125 L 189.125 28.488281 C 189.125 28.488281 191.972656 23.613281 187.539062 22.152344 L 186.910156 10.703125 L 183.746094 6.074219 L 185.007812 0.226562 L 176.726562 0.226562 L 177.992188 6.074219 L 174.824219 10.703125 L 174.1875 22.152344 C 169.757812 23.613281 172.605469 28.488281 172.605469 28.488281 L 172.605469 48.953125 L 168.808594 49.195312 L 168.492188 52.605469 L 162.792969 53.582031 L 162.792969 59.671875 "/><path style=" stroke:none;fill-rule:nonzero;fill:#a915ff;fill-opacity:1;" d="M 248.09375 104.246094 L 242.992188 104.246094 C 242.992188 104.246094 194.191406 100.355469 181.214844 100.355469 "/><path style=" stroke:none;fill-rule:nonzero;fill:#a915ff;fill-opacity:1;" d="M 260.046875 120.820312 C 260.046875 120.820312 197.359375 115.707031 181.84375 115.707031 L 179.574219 115.707031 "/><path style=" stroke:none;fill-rule:nonzero;fill:#a915ff;fill-opacity:1;" d="M 267.964844 129.347656 C 267.964844 129.347656 204.953125 123.746094 182.160156 123.746094 L 178.9375 123.746094 "/><path style=" stroke:none;fill-rule:nonzero;fill:#a915ff;fill-opacity:1;" d="M 267.648438 154.199219 C 267.648438 154.199219 203.058594 149.324219 184.0625 149.324219 L 176.726562 149.324219 "/><path style=" stroke:none;fill-rule:nonzero;fill:#a915ff;fill-opacity:1;" d="M 280.925781 167.671875 C 280.925781 167.671875 226.488281 161.507812 185.007812 161.507812 L 175.460938 161.507812 "/><path style=" stroke:none;fill-rule:nonzero;fill:#a915ff;fill-opacity:1;" d="M 280.945312 203.167969 C 280.945312 203.167969 217.851562 199.160156 186.824219 198.917969 L 173.558594 199.027344 "/><path style=" stroke:none;fill-rule:nonzero;fill:#a915ff;fill-opacity:1;" d="M 337.621094 241.902344 L 278.25 242.140625 L 278.25 219.875 L 246.75 215.347656 L 186.59375 215.105469 L 173.242188 215.105469 "/><path style=" stroke:none;fill-rule:nonzero;fill:#a915ff;fill-opacity:1;" d="M 174.1875 219.976562 L 186.910156 219.976562 L 278.25 219.875 L 288.542969 221.195312 "/><path style=" stroke:none;fill-rule:nonzero;fill:#a915ff;fill-opacity:1;" d="M 338.570312 286 C 337.09375 286.292969 182.789062 286 182.789062 286 L 177.355469 286 "/><path style=" stroke:none;fill-rule:nonzero;fill:#a915ff;fill-opacity:1;" d="M 264.796875 309.292969 L 264.796875 289.925781 L 250.457031 289.925781 L 250.550781 309.539062 "/><path style=" stroke:none;fill-rule:nonzero;fill:#a915ff;fill-opacity:1;" d="M 235.082031 309.476562 L 235.082031 290.109375 L 220.734375 290.109375 L 220.828125 309.71875 "/><path style=" stroke:none;fill-rule:nonzero;fill:#a915ff;fill-opacity:1;" d="M 204.242188 309.476562 L 204.242188 290.109375 L 190.410156 290.109375 L 189.992188 309.71875 "/><path style=" stroke:none;fill-rule:nonzero;fill:#a915ff;fill-opacity:1;" d="M 240.808594 323.519531 L 243.972656 323.519531 C 248.71875 323.519531 249.671875 326.929688 249.671875 326.929688 L 249.671875 341.304688 L 243.019531 341.304688 "/><path style=" stroke:none;fill-rule:nonzero;fill:#a915ff;fill-opacity:1;" d="M 241.613281 323.519531 C 236.863281 323.519531 235.914062 326.929688 235.914062 326.929688 L 235.914062 341.304688 L 244.292969 341.304688 "/><path style=" stroke:none;fill-rule:nonzero;fill:#a915ff;fill-opacity:1;" d="M 208.511719 323.519531 L 211.679688 323.519531 C 216.425781 323.519531 217.378906 326.929688 217.378906 326.929688 L 217.378906 341.304688 L 210.726562 341.304688 "/><path style=" stroke:none;fill-rule:nonzero;fill:#a915ff;fill-opacity:1;" d="M 209.316406 323.519531 C 204.566406 323.519531 203.621094 326.929688 203.621094 326.929688 L 203.621094 341.304688 L 212 341.304688 "/><path style=" stroke:none;fill-rule:nonzero;fill:#a915ff;fill-opacity:1;" d="M 168.492188 52.605469 C 168.492188 52.605469 181.898438 55.042969 193.238281 52.605469 "/><path style=" stroke:none;fill-rule:nonzero;fill:#a915ff;fill-opacity:1;" d="M 179.644531 323.761719 L 182.808594 323.761719 C 187.5625 323.761719 188.507812 327.171875 188.507812 327.171875 L 188.507812 341.546875 L 181.863281 341.546875 "/><path style=" stroke:none;fill-rule:nonzero;fill:#a915ff;fill-opacity:1;" d="M 180.457031 323.761719 C 175.703125 323.761719 174.75 327.171875 174.75 327.171875 L 174.75 341.546875 L 183.128906 341.546875 "/><path style=" stroke:none;fill-rule:nonzero;fill:#a915ff;fill-opacity:1;" d="M 296.089844 309.511719 L 317.304688 309.511719 L 317.304688 290.507812 L 296.089844 290.507812 Z M 296.089844 309.511719 "/><path style=" stroke:none;fill-rule:nonzero;fill:#a915ff;fill-opacity:1;" d="M 73.511719 221.195312 L 83.804688 219.875 L 175.144531 219.976562 "/><path style=" stroke:none;fill-rule:nonzero;fill:#a915ff;fill-opacity:1;" d="M 47.332031 264.84375 L 47.332031 281.683594 L 58.527344 281.683594 L 58.527344 259.226562 L 47.332031 259.226562 L 47.332031 265.019531 "/><path style=" stroke:none;fill-rule:nonzero;fill:#a915ff;fill-opacity:1;" d="M 47.171875 248.78125 L 47.171875 254.976562 L 58.363281 254.976562 L 58.363281 246.707031 L 47.171875 246.707031 L 47.171875 248.839844 "/><path style=" stroke:none;fill-rule:nonzero;fill:#a915ff;fill-opacity:1;" d="M 300.859375 265.332031 L 300.859375 282.167969 L 312.054688 282.167969 L 312.054688 259.714844 L 300.859375 259.714844 L 300.859375 265.507812 "/><path style=" stroke:none;fill-rule:nonzero;fill:#a915ff;fill-opacity:1;" d="M 300.699219 249.265625 L 300.699219 255.464844 L 311.898438 255.464844 L 311.898438 247.195312 L 300.699219 247.195312 L 300.699219 249.328125 "/><path style=" stroke:none;fill-rule:nonzero;fill:#a915ff;fill-opacity:1;" d="M 97.886719 285.269531 C 98.523438 234.59375 83.324219 240.929688 83.324219 240.929688 "/><path style=" stroke:none;fill-rule:nonzero;fill:#a915ff;fill-opacity:1;" d="M 277.925781 241.417969 C 277.925781 241.417969 262.726562 235.082031 263.355469 285.757812 "/><path style=" stroke:none;fill-rule:nonzero;fill:#a915ff;fill-opacity:1;" d="M 112.191406 265.699219 L 112.191406 282.535156 L 123.386719 282.535156 L 123.386719 260.082031 L 112.191406 260.082031 L 112.191406 265.875 "/><path style=" stroke:none;fill-rule:nonzero;fill:#a915ff;fill-opacity:1;" d="M 112.03125 249.632812 L 112.03125 255.832031 L 123.222656 255.832031 L 123.222656 247.5625 L 112.03125 247.5625 L 112.03125 249.691406 "/><path style=" stroke:none;fill-rule:nonzero;fill:#a915ff;fill-opacity:1;" d="M 143.09375 265.988281 L 143.09375 282.828125 L 154.285156 282.828125 L 154.285156 260.378906 L 143.09375 260.378906 L 143.09375 266.164062 "/><path style=" stroke:none;fill-rule:nonzero;fill:#a915ff;fill-opacity:1;" d="M 142.929688 249.921875 L 142.929688 256.128906 L 154.128906 256.128906 L 154.128906 247.851562 L 142.929688 247.851562 L 142.929688 249.984375 "/><path style=" stroke:none;fill-rule:nonzero;fill:#a915ff;fill-opacity:1;" d="M 174.5 265.597656 L 174.5 282.441406 L 185.691406 282.441406 L 185.691406 259.988281 L 174.5 259.988281 L 174.5 265.773438 "/><path style=" stroke:none;fill-rule:nonzero;fill:#a915ff;fill-opacity:1;" d="M 174.34375 249.53125 L 174.34375 255.738281 L 185.539062 255.738281 L 185.539062 247.464844 L 174.34375 247.464844 L 174.34375 249.597656 "/><path style=" stroke:none;fill-rule:nonzero;fill:#a915ff;fill-opacity:1;" d="M 207.429688 265.597656 L 207.429688 282.441406 L 218.625 282.441406 L 218.625 259.988281 L 207.429688 259.988281 L 207.429688 265.773438 "/><path style=" stroke:none;fill-rule:nonzero;fill:#a915ff;fill-opacity:1;" d="M 207.269531 249.53125 L 207.269531 255.738281 L 218.460938 255.738281 L 218.460938 247.464844 L 207.269531 247.464844 L 207.269531 249.597656 "/><path style=" stroke:none;fill-rule:nonzero;fill:#a915ff;fill-opacity:1;" d="M 235.921875 265.5 L 235.921875 282.339844 L 247.113281 282.339844 L 247.113281 259.890625 L 235.921875 259.890625 L 235.921875 265.675781 "/><path style=" stroke:none;fill-rule:nonzero;fill:#a915ff;fill-opacity:1;" d="M 235.765625 249.4375 L 235.765625 255.640625 L 246.957031 255.640625 L 246.957031 247.363281 L 235.765625 247.363281 L 235.765625 249.496094 "/><path style=" stroke:none;fill-rule:nonzero;fill:#a915ff;fill-opacity:1;" d="M 118.148438 182.914062 L 118.148438 189.109375 L 129.339844 189.109375 L 129.339844 180.839844 L 118.148438 180.839844 L 118.148438 182.972656 "/><path style=" stroke:none;fill-rule:nonzero;fill:#a915ff;fill-opacity:1;" d="M 146.007812 182.425781 L 146.007812 188.625 L 157.203125 188.625 L 157.203125 180.355469 L 146.007812 180.355469 L 146.007812 182.484375 "/><path style=" stroke:none;fill-rule:nonzero;fill:#a915ff;fill-opacity:1;" d="M 174.824219 182.425781 L 174.824219 188.625 L 186.019531 188.625 L 186.019531 180.355469 L 174.824219 180.355469 L 174.824219 182.484375 "/><path style=" stroke:none;fill-rule:nonzero;fill:#a915ff;fill-opacity:1;" d="M 203.953125 182.425781 L 203.953125 188.625 L 215.144531 188.625 L 215.144531 180.355469 L 203.953125 180.355469 L 203.953125 182.484375 "/><path style=" stroke:none;fill-rule:nonzero;fill:#a915ff;fill-opacity:1;" d="M 232.441406 181.929688 L 232.441406 188.136719 L 243.640625 188.136719 L 243.640625 179.867188 L 232.441406 179.867188 L 232.441406 182 "/><path style=" stroke:none;fill-rule:nonzero;fill:#a915ff;fill-opacity:1;" d="M 132.082031 102.710938 C 132.082031 102.710938 146.433594 59.183594 175.144531 58.859375 "/><path style=" stroke:none;fill-rule:nonzero;fill:#a915ff;fill-opacity:1;" d="M 230.058594 102.957031 C 230.058594 102.957031 215.707031 59.425781 187 59.101562 "/><path style=" stroke:none;fill-rule:nonzero;fill:#f8a13f;fill-opacity:1;" d="M 193.078125 374.648438 L 22.105469 374.648438 L 22.105469 365.390625 L 30.96875 357.105469 L 30.96875 324.945312 L 36.03125 300.105469 L 36.03125 236.515625 L 86.058594 236.515625 C 86.058594 236.515625 87.371094 220.6875 93.683594 219.105469 L 93.683594 182.992188 C 93.683594 182.992188 81.941406 173.660156 106.953125 169.519531 L 106.953125 146.132812 C 106.953125 146.132812 103.792969 139.308594 114.554688 136.144531 L 126.503906 119.5625 C 126.503906 119.5625 135.453125 74.019531 192.757812 74.019531 "/><path style=" stroke:none;fill-rule:nonzero;fill:#f8a13f;fill-opacity:1;" d="M 126.503906 119.5625 L 131.613281 119.5625 C 131.613281 119.5625 180.414062 115.679688 193.394531 115.679688 "/><path style=" stroke:none;fill-rule:nonzero;fill:#f8a13f;fill-opacity:1;" d="M 114.554688 136.144531 C 114.554688 136.144531 177.246094 131.027344 192.757812 131.027344 "/><path style=" stroke:none;fill-rule:nonzero;fill:#f8a13f;fill-opacity:1;" d="M 106.644531 144.667969 C 106.644531 144.667969 169.648438 139.066406 192.441406 139.066406 "/><path style=" stroke:none;fill-rule:nonzero;fill:#f8a13f;fill-opacity:1;" d="M 106.953125 169.519531 C 106.953125 169.519531 171.550781 164.648438 190.546875 164.648438 "/><path style=" stroke:none;fill-rule:nonzero;fill:#f8a13f;fill-opacity:1;" d="M 93.683594 182.992188 C 93.683594 182.992188 148.113281 176.828125 189.589844 176.828125 "/><path style=" stroke:none;fill-rule:nonzero;fill:#f8a13f;fill-opacity:1;" d="M 93.65625 218.488281 C 93.65625 218.488281 156.753906 214.480469 187.785156 214.238281 "/><path style=" stroke:none;fill-rule:nonzero;fill:#f8a13f;fill-opacity:1;" d="M 36.984375 257.226562 L 96.355469 257.457031 L 96.355469 235.191406 L 127.851562 230.671875 L 188.007812 230.425781 "/><path style=" stroke:none;fill-rule:nonzero;fill:#f8a13f;fill-opacity:1;" d="M 36.03125 301.316406 C 37.515625 301.613281 191.8125 301.316406 191.8125 301.316406 "/><path style=" stroke:none;fill-rule:nonzero;fill:#f8a13f;fill-opacity:1;" d="M 56.300781 324.222656 L 77.507812 324.222656 L 77.507812 305.214844 L 56.300781 305.214844 Z M 56.300781 324.222656 "/><path style=" stroke:none;fill-rule:nonzero;fill:#f8a13f;fill-opacity:1;" d="M 109.804688 325 L 109.804688 305.632812 L 124.152344 305.632812 L 124.054688 325.246094 "/><path style=" stroke:none;fill-rule:nonzero;fill:#f8a13f;fill-opacity:1;" d="M 139.527344 324.792969 L 139.519531 305.421875 L 153.867188 305.421875 L 153.769531 325.035156 "/><path style=" stroke:none;fill-rule:nonzero;fill:#f8a13f;fill-opacity:1;" d="M 171.882812 324.792969 L 171.875 305.421875 L 186.222656 305.421875 L 186.125 325.035156 "/><path style=" stroke:none;fill-rule:nonzero;fill:#f8a13f;fill-opacity:1;" d="M 86.996094 339.078125 L 83.835938 339.078125 C 79.085938 339.078125 78.132812 342.488281 78.132812 342.488281 L 78.132812 356.863281 L 84.785156 356.863281 "/><path style=" stroke:none;fill-rule:nonzero;fill:#f8a13f;fill-opacity:1;" d="M 86.191406 339.078125 C 90.941406 339.078125 91.890625 342.488281 91.890625 342.488281 L 91.890625 356.863281 L 83.519531 356.863281 "/><path style=" stroke:none;fill-rule:nonzero;fill:#f8a13f;fill-opacity:1;" d="M 119.609375 339.320312 L 116.441406 339.320312 C 111.699219 339.320312 110.746094 342.730469 110.746094 342.730469 L 110.746094 357.105469 L 117.398438 357.105469 "/><path style=" stroke:none;fill-rule:nonzero;fill:#f8a13f;fill-opacity:1;" d="M 118.804688 339.320312 C 123.554688 339.320312 124.503906 342.730469 124.503906 342.730469 L 124.503906 357.105469 L 116.132812 357.105469 "/><path style=" stroke:none;fill-rule:nonzero;fill:#f8a13f;fill-opacity:1;" d="M 152.539062 339.078125 L 149.371094 339.078125 C 144.621094 339.078125 143.675781 342.488281 143.675781 342.488281 L 143.675781 356.863281 "/><path style=" stroke:none;fill-rule:nonzero;fill:#f8a13f;fill-opacity:1;" d="M 151.734375 339.078125 C 156.484375 339.078125 157.433594 342.488281 157.433594 342.488281 L 157.433594 356.863281 "/><path style=" stroke:none;fill-rule:nonzero;fill:#f8a13f;fill-opacity:1;" d="M 185.007812 339.402344 L 181.847656 339.402344 C 177.097656 339.402344 176.144531 342.8125 176.144531 342.8125 L 176.144531 357.1875 "/><path style=" stroke:none;fill-rule:nonzero;fill:#f8a13f;fill-opacity:1;" d="M 184.203125 339.402344 C 188.957031 339.402344 189.910156 342.8125 189.910156 342.8125 L 189.910156 357.1875 "/><path style=" stroke:none;fill-rule:nonzero;fill:#f8a13f;fill-opacity:1;" d="M 215.160156 339.402344 L 212 339.402344 C 207.246094 339.402344 206.300781 342.8125 206.300781 342.8125 L 206.300781 357.1875 "/><path style=" stroke:none;fill-rule:nonzero;fill:#f8a13f;fill-opacity:1;" d="M 214.359375 339.402344 C 219.105469 339.402344 220.058594 342.8125 220.058594 342.8125 L 220.058594 357.1875 "/><path style=" stroke:none;fill-rule:nonzero;fill:#f8a13f;fill-opacity:1;" d="M 243.886719 339.402344 L 240.726562 339.402344 C 235.976562 339.402344 235.019531 342.8125 235.019531 342.8125 L 235.019531 357.1875 "/><path style=" stroke:none;fill-rule:nonzero;fill:#f8a13f;fill-opacity:1;" d="M 243.082031 339.402344 C 247.832031 339.402344 248.777344 342.8125 248.777344 342.8125 L 248.777344 357.1875 "/><path style=" stroke:none;fill-rule:nonzero;fill:#f8a13f;fill-opacity:1;" d="M 276.308594 339.078125 L 273.140625 339.078125 C 268.390625 339.078125 267.445312 342.488281 267.445312 342.488281 L 267.445312 356.863281 "/><path style=" stroke:none;fill-rule:nonzero;fill:#f8a13f;fill-opacity:1;" d="M 275.503906 339.078125 C 280.253906 339.078125 281.203125 342.488281 281.203125 342.488281 L 281.203125 356.863281 "/><path style=" stroke:none;fill-rule:nonzero;fill:#f8a13f;fill-opacity:1;" d="M 308.074219 339.164062 L 304.90625 339.164062 C 300.164062 339.164062 299.210938 342.570312 299.210938 342.570312 L 299.210938 356.949219 "/><path style=" stroke:none;fill-rule:nonzero;fill:#f8a13f;fill-opacity:1;" d="M 307.269531 339.164062 C 312.019531 339.164062 312.96875 342.570312 312.96875 342.570312 L 312.96875 356.949219 "/><path style=" stroke:none;fill-rule:nonzero;fill:#f8a13f;fill-opacity:1;" d="M 166.09375 339.078125 L 162.925781 339.078125 C 158.175781 339.078125 157.230469 342.488281 157.230469 342.488281 L 157.230469 356.863281 L 163.875 356.863281 "/><path style=" stroke:none;fill-rule:nonzero;fill:#f8a13f;fill-opacity:1;" d="M 165.289062 339.078125 C 170.035156 339.078125 170.988281 342.488281 170.988281 342.488281 L 170.988281 356.863281 L 162.609375 356.863281 "/><g clip-rule="nonzero" clip-path="url(#aaa7eae708)"><path style=" stroke:none;fill-rule:nonzero;fill:#f8a13f;fill-opacity:1;" d="M 191.8125 374.648438 L 365.050781 374.648438 L 365.050781 365.390625 L 356.183594 357.105469 L 356.183594 324.945312 L 351.121094 300.105469 L 351.121094 236.515625 L 301.097656 236.515625 C 301.097656 236.515625 299.785156 220.6875 293.472656 219.105469 L 293.472656 182.992188 C 293.472656 182.992188 305.210938 173.660156 280.199219 169.519531 L 280.199219 146.132812 C 280.199219 146.132812 283.367188 139.308594 272.601562 136.144531 L 260.648438 119.5625 C 260.648438 119.5625 251.703125 74.019531 194.394531 74.019531 L 191.492188 74.019531 "/></g><path style=" stroke:none;fill-rule:nonzero;fill:#f8a13f;fill-opacity:1;" d="M 211.492188 74.992188 L 211.492188 68.902344 L 205.792969 67.925781 L 205.472656 64.515625 L 201.679688 64.273438 L 201.679688 43.808594 C 201.679688 43.808594 204.527344 38.9375 200.09375 37.472656 L 199.464844 26.023438 L 196.296875 21.394531 L 197.5625 15.546875 L 189.28125 15.546875 L 190.546875 21.394531 L 187.378906 26.023438 L 186.742188 37.472656 C 182.308594 38.9375 185.160156 43.808594 185.160156 43.808594 L 185.160156 64.273438 L 181.363281 64.515625 L 181.042969 67.925781 L 175.347656 68.902344 L 175.347656 74.992188 "/><path style=" stroke:none;fill-rule:nonzero;fill:#f8a13f;fill-opacity:1;" d="M 260.648438 119.5625 L 255.539062 119.5625 C 255.539062 119.5625 206.746094 115.679688 193.761719 115.679688 "/><path style=" stroke:none;fill-rule:nonzero;fill:#f8a13f;fill-opacity:1;" d="M 272.601562 136.144531 C 272.601562 136.144531 209.90625 131.027344 194.394531 131.027344 L 192.128906 131.027344 "/><path style=" stroke:none;fill-rule:nonzero;fill:#f8a13f;fill-opacity:1;" d="M 280.519531 144.667969 C 280.519531 144.667969 217.507812 139.066406 194.714844 139.066406 L 191.492188 139.066406 "/><path style=" stroke:none;fill-rule:nonzero;fill:#f8a13f;fill-opacity:1;" d="M 280.199219 169.519531 C 280.199219 169.519531 215.613281 164.648438 196.609375 164.648438 L 189.28125 164.648438 "/><path style=" stroke:none;fill-rule:nonzero;fill:#f8a13f;fill-opacity:1;" d="M 293.472656 182.992188 C 293.472656 182.992188 239.039062 176.828125 197.5625 176.828125 L 188.007812 176.828125 "/><path style=" stroke:none;fill-rule:nonzero;fill:#f8a13f;fill-opacity:1;" d="M 293.496094 218.488281 C 293.496094 218.488281 230.40625 214.480469 199.371094 214.238281 L 186.113281 214.347656 "/><path style=" stroke:none;fill-rule:nonzero;fill:#f8a13f;fill-opacity:1;" d="M 350.167969 257.226562 L 290.796875 257.457031 L 290.796875 235.191406 L 259.300781 230.671875 L 199.148438 230.425781 L 185.792969 230.425781 "/><path style=" stroke:none;fill-rule:nonzero;fill:#f8a13f;fill-opacity:1;" d="M 186.742188 235.300781 L 199.464844 235.300781 L 290.796875 235.191406 L 301.097656 236.515625 "/><path style=" stroke:none;fill-rule:nonzero;fill:#f8a13f;fill-opacity:1;" d="M 351.121094 301.316406 C 349.640625 301.613281 195.34375 301.316406 195.34375 301.316406 L 189.910156 301.316406 "/><path style=" stroke:none;fill-rule:nonzero;fill:#f8a13f;fill-opacity:1;" d="M 277.351562 324.609375 L 277.351562 305.238281 L 263.003906 305.238281 L 263.097656 324.851562 "/><path style=" stroke:none;fill-rule:nonzero;fill:#f8a13f;fill-opacity:1;" d="M 247.628906 324.792969 L 247.636719 305.421875 L 233.289062 305.421875 L 233.382812 325.035156 "/><path style=" stroke:none;fill-rule:nonzero;fill:#f8a13f;fill-opacity:1;" d="M 216.796875 324.792969 L 216.796875 305.421875 L 202.957031 305.421875 L 202.542969 325.035156 "/><path style=" stroke:none;fill-rule:nonzero;fill:#f8a13f;fill-opacity:1;" d="M 253.359375 338.839844 L 256.519531 338.839844 C 261.273438 338.839844 262.226562 342.246094 262.226562 342.246094 L 262.226562 356.617188 L 255.574219 356.617188 "/><path style=" stroke:none;fill-rule:nonzero;fill:#f8a13f;fill-opacity:1;" d="M 254.164062 338.839844 C 249.414062 338.839844 248.46875 342.246094 248.46875 342.246094 L 248.46875 356.617188 L 256.839844 356.617188 "/><path style=" stroke:none;fill-rule:nonzero;fill:#f8a13f;fill-opacity:1;" d="M 221.066406 338.839844 L 224.226562 338.839844 C 228.976562 338.839844 229.933594 342.246094 229.933594 342.246094 L 229.933594 356.617188 L 223.28125 356.617188 "/><path style=" stroke:none;fill-rule:nonzero;fill:#f8a13f;fill-opacity:1;" d="M 221.871094 338.839844 C 217.121094 338.839844 216.167969 342.246094 216.167969 342.246094 L 216.167969 356.617188 L 224.542969 356.617188 "/><path style=" stroke:none;fill-rule:nonzero;fill:#f8a13f;fill-opacity:1;" d="M 181.042969 67.925781 C 181.042969 67.925781 194.449219 70.363281 205.792969 67.925781 "/><path style=" stroke:none;fill-rule:nonzero;fill:#f8a13f;fill-opacity:1;" d="M 192.195312 339.078125 L 195.363281 339.078125 C 200.113281 339.078125 201.0625 342.488281 201.0625 342.488281 L 201.0625 356.863281 L 194.417969 356.863281 "/><path style=" stroke:none;fill-rule:nonzero;fill:#f8a13f;fill-opacity:1;" d="M 193.003906 339.078125 C 188.257812 339.078125 187.304688 342.488281 187.304688 342.488281 L 187.304688 356.863281 L 195.683594 356.863281 "/><path style=" stroke:none;fill-rule:nonzero;fill:#f8a13f;fill-opacity:1;" d="M 308.636719 324.824219 L 329.851562 324.824219 L 329.851562 305.820312 L 308.636719 305.820312 Z M 308.636719 324.824219 "/><path style=" stroke:none;fill-rule:nonzero;fill:#f8a13f;fill-opacity:1;" d="M 86.058594 236.515625 L 96.355469 235.191406 L 187.695312 235.300781 "/><path style=" stroke:none;fill-rule:nonzero;fill:#f8a13f;fill-opacity:1;" d="M 59.878906 280.160156 L 59.878906 297.003906 L 71.082031 297.003906 L 71.082031 274.550781 L 59.878906 274.550781 L 59.878906 280.335938 "/><path style=" stroke:none;fill-rule:nonzero;fill:#f8a13f;fill-opacity:1;" d="M 59.726562 264.09375 L 59.726562 270.300781 L 70.917969 270.300781 L 70.917969 262.03125 L 59.726562 262.03125 L 59.726562 264.160156 "/><path style=" stroke:none;fill-rule:nonzero;fill:#f8a13f;fill-opacity:1;" d="M 313.414062 280.648438 L 313.414062 297.492188 L 324.609375 297.492188 L 324.609375 275.035156 L 313.414062 275.035156 L 313.414062 280.824219 "/><path style=" stroke:none;fill-rule:nonzero;fill:#f8a13f;fill-opacity:1;" d="M 313.253906 264.582031 L 313.253906 270.789062 L 324.445312 270.789062 L 324.445312 262.515625 L 313.253906 262.515625 L 313.253906 264.648438 "/><path style=" stroke:none;fill-rule:nonzero;fill:#f8a13f;fill-opacity:1;" d="M 110.441406 300.585938 C 111.074219 249.917969 95.875 256.25 95.875 256.25 "/><path style=" stroke:none;fill-rule:nonzero;fill:#f8a13f;fill-opacity:1;" d="M 290.472656 256.738281 C 290.472656 256.738281 275.28125 250.402344 275.910156 301.078125 "/><path style=" stroke:none;fill-rule:nonzero;fill:#f8a13f;fill-opacity:1;" d="M 124.738281 281.011719 L 124.738281 297.851562 L 135.9375 297.851562 L 135.9375 275.402344 L 124.738281 275.402344 L 124.738281 281.1875 "/><path style=" stroke:none;fill-rule:nonzero;fill:#f8a13f;fill-opacity:1;" d="M 124.582031 264.945312 L 124.582031 271.152344 L 135.777344 271.152344 L 135.777344 262.875 L 124.582031 262.875 L 124.582031 265.015625 "/><path style=" stroke:none;fill-rule:nonzero;fill:#f8a13f;fill-opacity:1;" d="M 155.644531 281.304688 L 155.644531 298.148438 L 166.839844 298.148438 L 166.839844 275.695312 L 155.644531 275.695312 L 155.644531 281.480469 "/><path style=" stroke:none;fill-rule:nonzero;fill:#f8a13f;fill-opacity:1;" d="M 155.484375 265.238281 L 155.484375 271.445312 L 166.675781 271.445312 L 166.675781 263.171875 L 155.484375 263.171875 L 155.484375 265.304688 "/><path style=" stroke:none;fill-rule:nonzero;fill:#f8a13f;fill-opacity:1;" d="M 187.054688 280.917969 L 187.054688 297.753906 L 198.246094 297.753906 L 198.246094 275.308594 L 187.054688 275.308594 L 187.054688 281.09375 "/><path style=" stroke:none;fill-rule:nonzero;fill:#f8a13f;fill-opacity:1;" d="M 186.890625 264.851562 L 186.890625 271.058594 L 198.089844 271.058594 L 198.089844 262.78125 L 186.890625 262.78125 L 186.890625 264.914062 "/><path style=" stroke:none;fill-rule:nonzero;fill:#f8a13f;fill-opacity:1;" d="M 219.976562 280.917969 L 219.976562 297.753906 L 231.175781 297.753906 L 231.175781 275.308594 L 219.976562 275.308594 L 219.976562 281.09375 "/><path style=" stroke:none;fill-rule:nonzero;fill:#f8a13f;fill-opacity:1;" d="M 219.820312 264.851562 L 219.820312 271.058594 L 231.015625 271.058594 L 231.015625 262.78125 L 219.820312 262.78125 L 219.820312 264.914062 "/><path style=" stroke:none;fill-rule:nonzero;fill:#f8a13f;fill-opacity:1;" d="M 248.472656 280.816406 L 248.472656 297.660156 L 259.667969 297.660156 L 259.667969 275.207031 L 248.472656 275.207031 L 248.472656 280.992188 "/><path style=" stroke:none;fill-rule:nonzero;fill:#f8a13f;fill-opacity:1;" d="M 248.320312 264.75 L 248.320312 270.957031 L 259.511719 270.957031 L 259.511719 262.6875 L 248.320312 262.6875 L 248.320312 264.816406 "/><path style=" stroke:none;fill-rule:nonzero;fill:#f8a13f;fill-opacity:1;" d="M 130.703125 198.226562 L 130.703125 204.433594 L 141.894531 204.433594 L 141.894531 196.164062 L 130.703125 196.164062 L 130.703125 198.292969 "/><path style=" stroke:none;fill-rule:nonzero;fill:#f8a13f;fill-opacity:1;" d="M 158.5625 197.738281 L 158.5625 203.945312 L 169.757812 203.945312 L 169.757812 195.675781 L 158.5625 195.675781 L 158.5625 197.808594 "/><path style=" stroke:none;fill-rule:nonzero;fill:#f8a13f;fill-opacity:1;" d="M 187.371094 197.738281 L 187.371094 203.945312 L 198.570312 203.945312 L 198.570312 195.675781 L 187.371094 195.675781 L 187.371094 197.808594 "/><path style=" stroke:none;fill-rule:nonzero;fill:#f8a13f;fill-opacity:1;" d="M 216.5 197.738281 L 216.5 203.945312 L 227.699219 203.945312 L 227.699219 195.675781 L 216.5 195.675781 L 216.5 197.808594 "/><path style=" stroke:none;fill-rule:nonzero;fill:#f8a13f;fill-opacity:1;" d="M 244.996094 197.253906 L 244.996094 203.457031 L 256.1875 203.457031 L 256.1875 195.183594 L 244.996094 195.183594 L 244.996094 197.320312 "/><path style=" stroke:none;fill-rule:nonzero;fill:#f8a13f;fill-opacity:1;" d="M 144.636719 118.035156 C 144.636719 118.035156 158.988281 74.503906 187.695312 74.179688 "/><path style=" stroke:none;fill-rule:nonzero;fill:#f8a13f;fill-opacity:1;" d="M 242.605469 118.277344 C 242.605469 118.277344 228.261719 74.75 199.546875 74.425781 "/><path style=" stroke:none;fill-rule:nonzero;fill:#000000;fill-opacity:1;" d="M 190.660156 360.253906 L 19.6875 360.253906 L 20.480469 361.042969 L 20.480469 351.785156 L 20.230469 352.367188 L 29.09375 344.085938 L 29.347656 343.847656 L 29.347656 311.34375 L 29.332031 311.507812 L 34.394531 286.65625 L 34.414062 286.574219 L 34.414062 222.914062 L 33.621094 223.699219 L 84.371094 223.699219 L 84.433594 222.976562 C 84.785156 218.730469 86.734375 207.457031 91.457031 206.265625 L 92.058594 206.117188 L 92.058594 169.003906 L 91.761719 168.769531 C 91.726562 168.75 88.722656 166.296875 89.40625 163.671875 C 89.960938 161.546875 93.0625 158.617188 104.675781 156.695312 L 105.335938 156.585938 L 105.335938 132.351562 L 105.261719 132.191406 C 105.230469 132.117188 104.390625 130.222656 105.371094 128.082031 C 106.332031 125.992188 108.6875 124.382812 112.363281 123.296875 L 112.625 123.222656 L 112.78125 123 L 124.734375 106.421875 L 124.832031 106.285156 L 124.867188 106.117188 C 124.957031 105.664062 134.382812 61.207031 190.34375 61.207031 L 190.34375 59.625 C 160.429688 59.625 143.804688 72.164062 135.113281 82.6875 C 125.699219 94.097656 123.40625 105.335938 123.3125 105.8125 L 123.445312 105.5 L 111.496094 122.074219 L 111.914062 121.777344 C 107.761719 123 105.066406 124.914062 103.914062 127.453125 C 102.644531 130.261719 103.773438 132.753906 103.820312 132.859375 L 103.753906 132.527344 L 103.753906 155.917969 L 104.410156 155.132812 C 94.414062 156.789062 88.84375 159.53125 87.878906 163.28125 C 86.9375 166.90625 90.617188 169.886719 90.773438 170.007812 L 90.476562 169.390625 L 90.476562 205.496094 L 91.070312 204.730469 C 84.289062 206.4375 82.910156 222.175781 82.855469 222.847656 L 83.648438 222.117188 L 32.832031 222.117188 L 32.832031 286.496094 L 32.84375 286.339844 L 27.777344 311.1875 L 27.761719 311.269531 L 27.761719 343.503906 L 28.011719 342.925781 L 19.148438 351.210938 L 18.898438 351.449219 L 18.898438 361.835938 L 190.660156 361.835938 L 190.660156 360.253906 "/><path style=" stroke:none;fill-rule:nonzero;fill:#000000;fill-opacity:1;" d="M 124.089844 106.75 L 129.199219 106.75 C 129.746094 106.710938 178.175781 102.867188 190.980469 102.867188 L 190.980469 101.285156 C 178.113281 101.285156 129.625 105.132812 129.136719 105.167969 C 129.199219 105.167969 124.089844 105.167969 124.089844 105.167969 L 124.089844 106.75 "/><path style=" stroke:none;fill-rule:nonzero;fill:#000000;fill-opacity:1;" d="M 112.207031 123.324219 C 112.828125 123.277344 175.042969 118.214844 190.34375 118.214844 L 190.34375 116.632812 C 174.972656 116.632812 112.699219 121.699219 112.078125 121.75 L 112.207031 123.324219 "/><path style=" stroke:none;fill-rule:nonzero;fill:#000000;fill-opacity:1;" d="M 104.292969 131.851562 C 104.925781 131.796875 167.53125 126.253906 190.03125 126.253906 L 190.03125 124.671875 C 167.453125 124.671875 104.789062 130.222656 104.152344 130.277344 L 104.292969 131.851562 "/><path style=" stroke:none;fill-rule:nonzero;fill:#000000;fill-opacity:1;" d="M 104.597656 156.703125 C 105.25 156.65625 169.378906 151.835938 188.128906 151.835938 L 188.128906 150.253906 C 169.316406 150.253906 105.128906 155.078125 104.484375 155.125 L 104.597656 156.703125 "/><path style=" stroke:none;fill-rule:nonzero;fill:#000000;fill-opacity:1;" d="M 91.355469 170.175781 C 91.898438 170.113281 146.226562 164.019531 187.183594 164.019531 L 187.183594 162.433594 C 146.132812 162.433594 91.722656 168.539062 91.171875 168.597656 L 91.355469 170.175781 "/><path style=" stroke:none;fill-rule:nonzero;fill:#000000;fill-opacity:1;" d="M 91.292969 205.671875 C 91.925781 205.628906 154.71875 201.664062 185.375 201.421875 L 185.363281 199.84375 C 154.664062 200.082031 91.824219 204.054688 91.191406 204.09375 L 91.292969 205.671875 "/><path style=" stroke:none;fill-rule:nonzero;fill:#000000;fill-opacity:1;" d="M 34.570312 244.40625 L 93.941406 244.644531 L 94.734375 244.652344 L 94.734375 221.589844 L 94.054688 222.375 L 125.550781 217.84375 L 125.441406 217.859375 L 185.597656 217.617188 L 185.589844 216.023438 L 125.4375 216.277344 L 125.382812 216.277344 L 125.328125 216.28125 L 93.824219 220.804688 L 93.148438 220.90625 L 93.148438 243.851562 L 93.941406 243.0625 L 34.570312 242.824219 L 34.570312 244.40625 "/><path style=" stroke:none;fill-rule:nonzero;fill:#000000;fill-opacity:1;" d="M 33.46875 288.492188 C 34.941406 288.789062 163.617188 288.558594 189.394531 288.503906 L 189.394531 286.921875 C 136.527344 287.023438 35.957031 287.15625 33.730469 286.925781 L 33.46875 288.492188 "/><path style=" stroke:none;fill-rule:nonzero;fill:#000000;fill-opacity:1;" d="M 28.554688 312.136719 L 189.078125 312.136719 L 189.078125 310.550781 L 28.554688 310.550781 L 28.554688 312.136719 "/><path style=" stroke:none;fill-rule:nonzero;fill:#000000;fill-opacity:1;" d="M 28.554688 344.292969 L 190.660156 344.292969 L 190.660156 342.710938 L 28.554688 342.710938 L 28.554688 344.292969 "/><path style=" stroke:none;fill-rule:nonzero;fill:#000000;fill-opacity:1;" d="M 19.6875 352.578125 L 190.34375 352.578125 L 190.34375 350.996094 L 19.6875 350.996094 L 19.6875 352.578125 "/><path style=" stroke:none;fill-rule:nonzero;fill:#000000;fill-opacity:1;" d="M 54.675781 310.613281 L 54.675781 291.609375 L 53.882812 292.402344 L 75.101562 292.402344 L 74.300781 291.609375 L 74.300781 310.613281 L 75.890625 310.613281 L 75.890625 290.820312 L 53.09375 290.820312 L 53.09375 310.613281 L 54.675781 310.613281 "/><path style=" stroke:none;fill-rule:nonzero;fill:#000000;fill-opacity:1;" d="M 108.1875 311.390625 L 108.179688 292.023438 L 107.386719 292.820312 L 121.734375 292.820312 L 120.941406 292.023438 L 120.847656 311.636719 L 122.429688 311.640625 L 122.527344 292.03125 L 122.53125 291.238281 L 106.597656 291.238281 L 106.597656 292.023438 L 106.601562 311.398438 L 108.1875 311.390625 "/><path style=" stroke:none;fill-rule:nonzero;fill:#000000;fill-opacity:1;" d="M 137.902344 311.1875 L 137.894531 291.820312 L 137.101562 292.613281 L 151.449219 292.613281 L 150.660156 291.8125 L 150.5625 311.425781 L 152.148438 311.4375 L 152.242188 291.820312 L 152.25 291.027344 L 136.3125 291.027344 L 136.3125 291.820312 L 136.316406 311.1875 L 137.902344 311.1875 "/><path style=" stroke:none;fill-rule:nonzero;fill:#000000;fill-opacity:1;" d="M 170.257812 311.1875 L 170.257812 291.820312 L 169.457031 292.613281 L 183.804688 292.613281 L 183.011719 291.8125 L 182.917969 311.425781 L 184.507812 311.4375 L 184.597656 291.820312 L 184.605469 291.027344 L 168.667969 291.027344 L 168.667969 291.820312 L 168.671875 311.1875 L 170.257812 311.1875 "/><path style=" stroke:none;fill-rule:nonzero;fill:#000000;fill-opacity:1;" d="M 84.589844 324.683594 L 81.421875 324.683594 C 76.128906 324.683594 75 328.511719 74.957031 328.675781 L 74.925781 328.777344 L 74.925781 344.050781 L 82.367188 344.050781 L 82.367188 342.46875 L 75.722656 342.46875 L 76.515625 343.257812 L 76.515625 328.886719 L 76.480469 329.101562 C 76.515625 328.992188 77.367188 326.265625 81.421875 326.265625 L 84.589844 326.265625 L 84.589844 324.683594 "/><path style=" stroke:none;fill-rule:nonzero;fill:#000000;fill-opacity:1;" d="M 83.777344 326.265625 C 87.828125 326.265625 88.683594 328.992188 88.714844 329.109375 L 88.6875 328.886719 L 88.6875 343.257812 L 89.480469 342.46875 L 81.101562 342.46875 L 81.101562 344.050781 L 90.273438 344.050781 L 90.273438 328.777344 L 90.238281 328.675781 C 90.199219 328.511719 89.066406 324.683594 83.777344 324.683594 L 83.777344 326.265625 "/><path style=" stroke:none;fill-rule:nonzero;fill:#000000;fill-opacity:1;" d="M 117.199219 324.925781 L 114.03125 324.925781 C 108.742188 324.925781 107.609375 328.757812 107.570312 328.917969 L 107.535156 329.019531 L 107.535156 344.292969 L 114.980469 344.292969 L 114.980469 342.710938 L 108.328125 342.710938 L 109.121094 343.503906 L 109.121094 329.128906 L 109.09375 329.34375 C 109.125 329.238281 109.980469 326.511719 114.03125 326.511719 L 117.199219 326.511719 L 117.199219 324.925781 "/><path style=" stroke:none;fill-rule:nonzero;fill:#000000;fill-opacity:1;" d="M 116.386719 326.511719 C 120.441406 326.511719 121.292969 329.238281 121.328125 329.351562 L 121.300781 329.128906 L 121.300781 343.503906 L 122.09375 342.710938 L 113.714844 342.710938 L 113.714844 344.292969 L 122.886719 344.292969 L 122.886719 329.019531 L 122.851562 328.917969 C 122.808594 328.757812 121.679688 324.925781 116.386719 324.925781 L 116.386719 326.511719 "/><path style=" stroke:none;fill-rule:nonzero;fill:#000000;fill-opacity:1;" d="M 150.125 324.683594 L 146.957031 324.683594 C 141.671875 324.683594 140.542969 328.511719 140.492188 328.675781 L 140.464844 328.777344 L 140.464844 343.257812 L 142.050781 343.257812 L 142.050781 328.886719 L 142.023438 329.101562 C 142.058594 328.992188 142.910156 326.265625 146.957031 326.265625 L 150.125 326.265625 L 150.125 324.683594 "/><path style=" stroke:none;fill-rule:nonzero;fill:#000000;fill-opacity:1;" d="M 149.320312 326.265625 C 153.367188 326.265625 154.226562 328.992188 154.257812 329.109375 L 154.226562 328.886719 L 154.226562 343.257812 L 155.808594 343.257812 L 155.808594 328.777344 L 155.78125 328.675781 C 155.734375 328.511719 154.609375 324.683594 149.320312 324.683594 L 149.320312 326.265625 "/><path style=" stroke:none;fill-rule:nonzero;fill:#000000;fill-opacity:1;" d="M 182.601562 325.007812 L 179.433594 325.007812 C 174.140625 325.007812 173.011719 328.839844 172.96875 329 L 172.945312 329.101562 L 172.945312 343.585938 L 174.527344 343.585938 L 174.527344 329.210938 L 174.492188 329.425781 C 174.527344 329.320312 175.378906 326.589844 179.433594 326.589844 L 182.601562 326.589844 L 182.601562 325.007812 "/><path style=" stroke:none;fill-rule:nonzero;fill:#000000;fill-opacity:1;" d="M 181.789062 326.589844 C 185.84375 326.589844 186.695312 329.320312 186.730469 329.433594 L 186.703125 329.210938 L 186.703125 343.585938 L 188.285156 343.585938 L 188.285156 329.101562 L 188.25 329 C 188.210938 328.839844 187.082031 325.007812 181.789062 325.007812 L 181.789062 326.589844 "/><path style=" stroke:none;fill-rule:nonzero;fill:#000000;fill-opacity:1;" d="M 212.75 325.007812 L 209.582031 325.007812 C 204.289062 325.007812 203.167969 328.839844 203.121094 329 L 203.09375 329.101562 L 203.09375 343.585938 L 204.675781 343.585938 L 204.675781 329.210938 L 204.648438 329.425781 C 204.675781 329.320312 205.535156 326.589844 209.582031 326.589844 L 212.75 326.589844 L 212.75 325.007812 "/><path style=" stroke:none;fill-rule:nonzero;fill:#000000;fill-opacity:1;" d="M 211.945312 326.589844 C 215.992188 326.589844 216.84375 329.320312 216.878906 329.433594 L 216.851562 329.210938 L 216.851562 343.585938 L 218.433594 343.585938 L 218.433594 329.101562 L 218.40625 329 C 218.359375 328.839844 217.230469 325.007812 211.945312 325.007812 L 211.945312 326.589844 "/><path style=" stroke:none;fill-rule:nonzero;fill:#000000;fill-opacity:1;" d="M 241.476562 325.007812 L 238.308594 325.007812 C 233.019531 325.007812 231.886719 328.839844 231.847656 329 L 231.8125 329.101562 L 231.8125 343.585938 L 233.402344 343.585938 L 233.402344 329.210938 L 233.371094 329.425781 C 233.402344 329.320312 234.257812 326.589844 238.308594 326.589844 L 241.476562 326.589844 L 241.476562 325.007812 "/><path style=" stroke:none;fill-rule:nonzero;fill:#000000;fill-opacity:1;" d="M 240.671875 326.589844 C 244.71875 326.589844 245.570312 329.320312 245.605469 329.433594 L 245.578125 329.210938 L 245.578125 343.585938 L 247.160156 343.585938 L 247.160156 329.101562 L 247.128906 329 C 247.085938 328.839844 245.957031 325.007812 240.671875 325.007812 L 240.671875 326.589844 "/><path style=" stroke:none;fill-rule:nonzero;fill:#000000;fill-opacity:1;" d="M 273.894531 324.683594 L 270.726562 324.683594 C 265.441406 324.683594 264.308594 328.511719 264.261719 328.675781 L 264.234375 328.777344 L 264.234375 343.257812 L 265.820312 343.257812 L 265.820312 328.886719 L 265.792969 329.101562 C 265.824219 328.992188 266.679688 326.265625 270.726562 326.265625 L 273.894531 326.265625 L 273.894531 324.683594 "/><path style=" stroke:none;fill-rule:nonzero;fill:#000000;fill-opacity:1;" d="M 273.085938 326.265625 C 277.132812 326.265625 277.992188 328.992188 278.027344 329.109375 L 277.992188 328.886719 L 277.992188 343.257812 L 279.578125 343.257812 L 279.578125 328.777344 L 279.550781 328.675781 C 279.503906 328.511719 278.378906 324.683594 273.085938 324.683594 L 273.085938 326.265625 "/><path style=" stroke:none;fill-rule:nonzero;fill:#000000;fill-opacity:1;" d="M 305.660156 324.765625 L 302.492188 324.765625 C 297.207031 324.765625 296.078125 328.59375 296.035156 328.757812 L 296.003906 328.859375 L 296.003906 343.339844 L 297.585938 343.339844 L 297.585938 328.964844 L 297.558594 329.183594 C 297.59375 329.074219 298.445312 326.347656 302.492188 326.347656 L 305.660156 326.347656 L 305.660156 324.765625 "/><path style=" stroke:none;fill-rule:nonzero;fill:#000000;fill-opacity:1;" d="M 304.855469 326.347656 C 308.90625 326.347656 309.761719 329.074219 309.792969 329.191406 L 309.761719 328.964844 L 309.761719 343.339844 L 311.351562 343.339844 L 311.351562 328.859375 L 311.316406 328.757812 C 311.269531 328.59375 310.144531 324.765625 304.855469 324.765625 L 304.855469 326.347656 "/><path style=" stroke:none;fill-rule:nonzero;fill:#000000;fill-opacity:1;" d="M 163.679688 324.683594 L 160.511719 324.683594 C 155.21875 324.683594 154.097656 328.511719 154.050781 328.675781 L 154.023438 328.777344 L 154.023438 344.050781 L 161.460938 344.050781 L 161.460938 342.46875 L 154.8125 342.46875 L 155.605469 343.257812 L 155.605469 328.886719 L 155.570312 329.101562 C 155.605469 328.992188 156.464844 326.265625 160.511719 326.265625 L 163.679688 326.265625 L 163.679688 324.683594 "/><path style=" stroke:none;fill-rule:nonzero;fill:#000000;fill-opacity:1;" d="M 162.875 326.265625 C 166.921875 326.265625 167.773438 328.992188 167.808594 329.109375 L 167.78125 328.886719 L 167.78125 343.257812 L 168.570312 342.46875 L 160.195312 342.46875 L 160.195312 344.050781 L 169.363281 344.050781 L 169.363281 328.777344 L 169.335938 328.675781 C 169.289062 328.511719 168.160156 324.683594 162.875 324.683594 L 162.875 326.265625 "/><path style=" stroke:none;fill-rule:nonzero;fill:#000000;fill-opacity:1;" d="M 189.394531 361.835938 L 363.425781 361.835938 L 363.425781 351.449219 L 363.175781 351.210938 L 354.308594 342.925781 L 354.566406 343.503906 L 354.566406 311.269531 L 354.546875 311.1875 L 349.476562 286.339844 L 349.5 286.496094 L 349.5 222.117188 L 298.683594 222.117188 L 299.46875 222.847656 C 299.414062 222.175781 298.039062 206.4375 291.25 204.730469 L 291.855469 205.496094 L 291.855469 169.390625 L 291.554688 170.007812 C 291.710938 169.886719 295.394531 166.90625 294.453125 163.28125 C 293.476562 159.53125 287.914062 156.789062 277.914062 155.132812 L 278.574219 155.917969 L 278.574219 132.527344 L 278.5 132.859375 C 278.546875 132.753906 279.679688 130.261719 278.40625 127.453125 C 277.257812 124.914062 274.5625 123 270.40625 121.777344 L 270.828125 122.074219 L 258.875 105.5 L 259.011719 105.8125 C 258.917969 105.335938 256.628906 94.097656 247.207031 82.6875 C 238.527344 72.164062 221.890625 59.625 191.980469 59.625 L 189.078125 59.625 L 189.078125 61.207031 L 191.980469 61.207031 C 247.941406 61.207031 257.367188 105.664062 257.453125 106.117188 L 257.488281 106.285156 L 257.589844 106.421875 L 269.542969 123 L 269.703125 123.222656 L 269.960938 123.296875 C 273.640625 124.382812 275.992188 125.992188 276.953125 128.082031 C 277.933594 130.222656 277.101562 132.117188 277.066406 132.199219 L 276.992188 132.351562 C 276.992188 132.351562 276.992188 132.527344 276.992188 132.527344 L 276.992188 156.585938 L 277.65625 156.695312 C 289.261719 158.617188 292.359375 161.546875 292.917969 163.671875 C 293.597656 166.296875 290.59375 168.75 290.566406 168.769531 L 290.269531 169.003906 C 290.269531 169.003906 290.269531 169.390625 290.269531 169.390625 L 290.269531 206.117188 L 290.867188 206.265625 C 295.589844 207.457031 297.539062 218.730469 297.890625 222.976562 L 297.949219 223.699219 L 348.707031 223.699219 L 347.914062 222.914062 L 347.914062 286.574219 L 347.929688 286.65625 L 352.996094 311.507812 L 352.976562 311.34375 L 352.976562 343.847656 L 353.226562 344.085938 L 362.09375 352.367188 L 361.84375 351.785156 L 361.84375 361.042969 L 362.632812 360.253906 L 189.394531 360.253906 L 189.394531 361.835938 "/><path style=" stroke:none;fill-rule:nonzero;fill:#000000;fill-opacity:1;" d="M 209.867188 61.390625 L 209.867188 54.628906 L 209.210938 54.515625 L 203.511719 53.539062 L 204.167969 54.25 L 203.851562 50.839844 L 203.789062 50.164062 L 203.113281 50.121094 L 199.316406 49.878906 L 200.054688 50.671875 L 200.054688 30.207031 L 199.945312 30.605469 C 200.011719 30.488281 201.554688 27.808594 200.695312 25.542969 C 200.261719 24.394531 199.328125 23.582031 197.929688 23.121094 L 198.46875 23.824219 L 197.832031 12.378906 L 197.828125 12.15625 L 197.699219 11.972656 L 194.53125 7.34375 L 194.652344 7.960938 L 195.917969 2.113281 L 196.128906 1.152344 L 185.882812 1.152344 L 186.085938 2.113281 L 187.351562 7.960938 L 187.472656 7.34375 L 184.304688 11.972656 L 184.183594 12.15625 L 184.171875 12.378906 L 183.542969 23.824219 L 184.082031 23.121094 C 182.675781 23.582031 181.746094 24.394531 181.316406 25.542969 C 180.457031 27.808594 182 30.488281 182.066406 30.605469 L 181.957031 30.207031 L 181.957031 50.671875 L 182.695312 49.878906 L 178.898438 50.121094 L 178.222656 50.164062 L 178.160156 50.839844 L 177.84375 54.25 L 178.5 53.539062 L 172.792969 54.515625 L 172.136719 54.628906 L 172.136719 61.390625 L 173.722656 61.390625 L 173.722656 55.300781 L 173.066406 56.078125 L 178.761719 55.101562 L 179.367188 55 L 179.417969 54.398438 L 179.738281 50.980469 L 178.992188 51.707031 L 182.796875 51.460938 L 183.542969 51.40625 L 183.542969 29.988281 L 183.433594 29.804688 C 183.417969 29.785156 182.203125 27.660156 182.796875 26.097656 C 183.0625 25.414062 183.644531 24.933594 184.578125 24.621094 L 185.089844 24.453125 L 185.117188 23.914062 L 185.753906 12.460938 L 185.617188 12.867188 L 188.777344 8.238281 L 188.976562 7.953125 L 188.902344 7.621094 L 187.636719 1.777344 L 186.863281 2.738281 L 195.148438 2.738281 L 194.367188 1.777344 L 193.105469 7.621094 L 193.035156 7.953125 L 193.226562 8.238281 L 196.390625 12.867188 L 196.257812 12.460938 L 196.886719 23.914062 L 196.921875 24.453125 L 197.433594 24.621094 C 198.367188 24.933594 198.949219 25.414062 199.207031 26.097656 C 199.804688 27.660156 198.59375 29.785156 198.578125 29.804688 L 198.46875 29.988281 C 198.46875 29.996094 198.46875 30.207031 198.46875 30.207031 L 198.46875 51.40625 L 199.207031 51.460938 L 203.011719 51.707031 L 202.273438 50.980469 L 202.589844 54.398438 L 202.644531 55 L 203.246094 55.101562 L 208.945312 56.078125 L 208.28125 55.300781 L 208.28125 61.390625 L 209.867188 61.390625 "/><path style=" stroke:none;fill-rule:nonzero;fill:#000000;fill-opacity:1;" d="M 258.234375 105.167969 L 253.128906 105.167969 C 252.703125 105.132812 204.207031 101.285156 191.351562 101.285156 L 191.351562 102.867188 C 204.148438 102.867188 252.574219 106.710938 253.0625 106.75 C 253.128906 106.75 258.234375 106.75 258.234375 106.75 L 258.234375 105.167969 "/><path style=" stroke:none;fill-rule:nonzero;fill:#000000;fill-opacity:1;" d="M 270.253906 121.75 C 269.621094 121.699219 207.347656 116.632812 191.980469 116.632812 L 189.714844 116.632812 L 189.714844 118.214844 L 191.980469 118.214844 C 207.289062 118.214844 269.492188 123.277344 270.125 123.324219 L 270.253906 121.75 "/><path style=" stroke:none;fill-rule:nonzero;fill:#000000;fill-opacity:1;" d="M 278.167969 130.277344 C 277.539062 130.222656 214.867188 124.671875 192.296875 124.671875 L 189.078125 124.671875 L 189.078125 126.253906 L 192.296875 126.253906 C 214.800781 126.253906 277.398438 131.796875 278.027344 131.851562 L 278.167969 130.277344 "/><path style=" stroke:none;fill-rule:nonzero;fill:#000000;fill-opacity:1;" d="M 277.84375 155.125 C 277.195312 155.078125 213.007812 150.253906 194.199219 150.253906 L 186.863281 150.253906 L 186.863281 151.835938 L 194.199219 151.835938 C 212.945312 151.835938 277.082031 156.65625 277.722656 156.703125 L 277.84375 155.125 "/><path style=" stroke:none;fill-rule:nonzero;fill:#000000;fill-opacity:1;" d="M 291.148438 168.597656 C 290.609375 168.539062 236.191406 162.433594 195.148438 162.433594 L 185.597656 162.433594 L 185.597656 164.019531 L 195.148438 164.019531 C 236.105469 164.019531 290.425781 170.113281 290.972656 170.175781 L 291.148438 168.597656 "/><path style=" stroke:none;fill-rule:nonzero;fill:#000000;fill-opacity:1;" d="M 291.128906 204.09375 C 290.5 204.054688 227.65625 200.082031 196.960938 199.84375 C 196.953125 199.84375 183.691406 199.945312 183.691406 199.945312 L 183.703125 201.535156 L 196.960938 201.421875 C 227.605469 201.664062 290.398438 205.628906 291.027344 205.671875 L 291.128906 204.09375 "/><path style=" stroke:none;fill-rule:nonzero;fill:#000000;fill-opacity:1;" d="M 347.753906 242.824219 L 288.382812 243.0625 L 289.179688 243.851562 L 289.179688 220.90625 L 288.496094 220.804688 L 257 216.28125 L 256.945312 216.277344 L 256.894531 216.277344 L 196.730469 216.023438 C 196.730469 216.023438 183.378906 216.023438 183.378906 216.023438 L 183.378906 217.617188 L 196.730469 217.617188 C 196.722656 217.617188 256.878906 217.859375 256.878906 217.859375 L 256.769531 217.84375 L 288.273438 222.375 L 287.597656 221.589844 L 287.597656 244.652344 L 288.386719 244.644531 L 347.757812 244.40625 L 347.753906 242.824219 "/><path style=" stroke:none;fill-rule:nonzero;fill:#000000;fill-opacity:1;" d="M 184.328125 222.488281 L 197.050781 222.488281 C 197.050781 222.488281 288.386719 222.378906 288.386719 222.378906 L 288.28125 222.375 L 298.582031 223.699219 L 298.785156 222.121094 L 288.484375 220.804688 L 288.4375 220.796875 L 288.382812 220.796875 L 197.042969 220.898438 C 197.050781 220.898438 184.328125 220.898438 184.328125 220.898438 L 184.328125 222.488281 "/><path style=" stroke:none;fill-rule:nonzero;fill:#000000;fill-opacity:1;" d="M 348.550781 286.941406 L 348.597656 286.925781 C 346.363281 287.15625 245.800781 287.023438 192.933594 286.921875 C 192.925781 286.921875 187.492188 286.921875 187.492188 286.921875 L 187.492188 288.503906 L 192.925781 288.503906 C 218.710938 288.558594 347.378906 288.789062 348.863281 288.492188 L 348.550781 286.941406 "/><path style=" stroke:none;fill-rule:nonzero;fill:#000000;fill-opacity:1;" d="M 353.769531 310.550781 L 187.8125 310.550781 L 187.8125 312.136719 L 353.769531 312.136719 L 353.769531 310.550781 "/><path style=" stroke:none;fill-rule:nonzero;fill:#000000;fill-opacity:1;" d="M 353.769531 342.710938 L 189.714844 342.710938 L 189.714844 344.292969 L 353.769531 344.292969 L 353.769531 342.710938 "/><path style=" stroke:none;fill-rule:nonzero;fill:#000000;fill-opacity:1;" d="M 362.632812 350.996094 L 188.765625 350.996094 L 188.765625 352.578125 L 362.632812 352.578125 L 362.632812 350.996094 "/><path style=" stroke:none;fill-rule:nonzero;fill:#000000;fill-opacity:1;" d="M 275.726562 311.003906 L 275.734375 291.636719 L 275.734375 290.847656 L 259.796875 290.847656 L 259.804688 291.644531 L 259.890625 311.257812 L 261.480469 311.242188 L 261.386719 291.628906 L 260.59375 292.429688 L 274.941406 292.429688 L 274.148438 291.636719 L 274.144531 311.003906 L 275.726562 311.003906 "/><path style=" stroke:none;fill-rule:nonzero;fill:#000000;fill-opacity:1;" d="M 246.011719 311.1875 L 246.011719 291.027344 L 230.082031 291.027344 L 230.082031 291.820312 L 230.175781 311.4375 L 231.757812 311.425781 L 231.664062 291.8125 L 230.871094 292.613281 L 245.21875 292.613281 L 244.425781 291.820312 L 244.425781 311.1875 L 246.011719 311.1875 "/><path style=" stroke:none;fill-rule:nonzero;fill:#000000;fill-opacity:1;" d="M 215.171875 311.1875 L 215.171875 291.027344 L 199.769531 291.027344 L 199.75 291.800781 L 199.335938 311.417969 L 200.917969 311.453125 L 201.332031 291.832031 L 200.539062 292.613281 L 214.378906 292.613281 L 213.589844 291.820312 L 213.589844 311.1875 L 215.171875 311.1875 "/><path style=" stroke:none;fill-rule:nonzero;fill:#000000;fill-opacity:1;" d="M 250.945312 326.023438 L 254.113281 326.023438 C 258.160156 326.023438 259.011719 328.75 259.046875 328.863281 L 259.019531 328.640625 L 259.019531 343.015625 L 259.808594 342.222656 L 253.15625 342.222656 L 253.15625 343.808594 L 260.601562 343.808594 L 260.601562 328.535156 L 260.574219 328.433594 C 260.527344 328.269531 259.398438 324.4375 254.113281 324.4375 L 250.945312 324.4375 L 250.945312 326.023438 "/><path style=" stroke:none;fill-rule:nonzero;fill:#000000;fill-opacity:1;" d="M 251.75 324.4375 C 246.457031 324.4375 245.335938 328.269531 245.285156 328.433594 L 245.261719 328.535156 L 245.261719 343.808594 L 254.421875 343.808594 L 254.421875 342.222656 L 246.050781 342.222656 L 246.84375 343.015625 L 246.84375 328.640625 L 246.816406 328.859375 C 246.84375 328.75 247.703125 326.023438 251.75 326.023438 L 251.75 324.4375 "/><path style=" stroke:none;fill-rule:nonzero;fill:#000000;fill-opacity:1;" d="M 218.652344 326.023438 L 221.816406 326.023438 C 225.863281 326.023438 226.71875 328.75 226.75 328.863281 L 226.722656 328.640625 L 226.722656 343.015625 L 227.515625 342.222656 L 220.863281 342.222656 L 220.863281 343.808594 L 228.308594 343.808594 L 228.308594 328.535156 L 228.273438 328.433594 C 228.234375 328.269531 227.101562 324.4375 221.816406 324.4375 L 218.652344 324.4375 L 218.652344 326.023438 "/><path style=" stroke:none;fill-rule:nonzero;fill:#000000;fill-opacity:1;" d="M 219.457031 324.4375 C 214.164062 324.4375 213.039062 328.269531 212.992188 328.433594 L 212.964844 328.535156 L 212.964844 343.808594 L 222.128906 343.808594 L 222.128906 342.222656 L 213.757812 342.222656 L 214.550781 343.015625 L 214.550781 328.640625 L 214.523438 328.859375 C 214.550781 328.75 215.410156 326.023438 219.457031 326.023438 L 219.457031 324.4375 "/><path style=" stroke:none;fill-rule:nonzero;fill:#000000;fill-opacity:1;" d="M 178.484375 55.101562 C 179.039062 55.203125 192.175781 57.539062 203.546875 55.097656 L 203.214844 53.546875 C 192.15625 55.921875 178.90625 53.566406 178.769531 53.546875 L 178.484375 55.101562 "/><path style=" stroke:none;fill-rule:nonzero;fill:#000000;fill-opacity:1;" d="M 189.78125 326.265625 L 192.949219 326.265625 C 197 326.265625 197.855469 328.992188 197.886719 329.109375 L 197.855469 328.886719 L 197.855469 343.257812 L 198.644531 342.46875 L 192 342.46875 L 192 344.050781 L 199.4375 344.050781 L 199.4375 328.777344 L 199.410156 328.675781 C 199.363281 328.511719 198.238281 324.683594 192.949219 324.683594 L 189.78125 324.683594 L 189.78125 326.265625 "/><path style=" stroke:none;fill-rule:nonzero;fill:#000000;fill-opacity:1;" d="M 190.585938 324.683594 C 185.300781 324.683594 184.171875 328.511719 184.128906 328.675781 L 184.097656 328.777344 L 184.097656 344.050781 L 193.265625 344.050781 L 193.265625 342.46875 L 184.886719 342.46875 L 185.679688 343.257812 L 185.679688 328.886719 L 185.652344 329.101562 C 185.6875 328.992188 186.539062 326.265625 190.585938 326.265625 L 190.585938 324.683594 "/><path style=" stroke:none;fill-rule:nonzero;fill:#000000;fill-opacity:1;" d="M 307.019531 311.222656 L 307.019531 292.21875 L 306.226562 293.011719 L 327.4375 293.011719 L 326.644531 292.21875 L 326.644531 311.222656 L 328.234375 311.222656 L 328.234375 291.425781 L 305.4375 291.425781 L 305.4375 311.222656 L 307.019531 311.222656 "/><path style=" stroke:none;fill-rule:nonzero;fill:#000000;fill-opacity:1;" d="M 83.75 223.699219 L 94.042969 222.375 L 93.941406 222.378906 L 185.28125 222.488281 L 185.28125 220.898438 L 93.941406 220.796875 L 93.886719 220.796875 L 93.839844 220.804688 L 83.546875 222.121094 L 83.75 223.699219 "/><path style=" stroke:none;fill-rule:nonzero;fill:#000000;fill-opacity:1;" d="M 56.679688 266.558594 L 56.679688 284.191406 L 69.457031 284.191406 L 69.457031 260.15625 L 56.679688 260.15625 L 56.679688 266.734375 L 58.261719 266.734375 L 58.261719 260.949219 L 57.472656 261.738281 L 68.664062 261.738281 L 67.871094 260.949219 L 67.871094 283.402344 L 68.664062 282.601562 L 57.472656 282.601562 L 58.261719 283.402344 L 58.261719 266.558594 L 56.679688 266.558594 "/><path style=" stroke:none;fill-rule:nonzero;fill:#000000;fill-opacity:1;" d="M 56.515625 250.492188 L 56.515625 257.488281 L 69.292969 257.488281 L 69.292969 247.628906 L 56.515625 247.628906 L 56.515625 250.558594 L 58.101562 250.558594 L 58.101562 248.425781 L 57.308594 249.21875 L 68.503906 249.21875 L 67.710938 248.425781 L 67.710938 256.699219 L 68.503906 255.90625 L 57.308594 255.90625 L 58.101562 256.699219 L 58.101562 250.492188 L 56.515625 250.492188 "/><path style=" stroke:none;fill-rule:nonzero;fill:#000000;fill-opacity:1;" d="M 310.207031 267.042969 L 310.207031 284.675781 L 322.984375 284.675781 L 322.984375 260.644531 L 310.207031 260.644531 L 310.207031 267.21875 L 311.789062 267.21875 L 311.789062 261.433594 L 311 262.226562 L 322.191406 262.226562 L 321.398438 261.433594 L 321.398438 283.882812 L 322.191406 283.089844 L 311 283.089844 L 311.789062 283.882812 L 311.789062 267.042969 L 310.207031 267.042969 "/><path style=" stroke:none;fill-rule:nonzero;fill:#000000;fill-opacity:1;" d="M 310.050781 250.980469 L 310.050781 257.976562 L 322.828125 257.976562 L 322.828125 248.117188 L 310.050781 248.117188 L 310.050781 251.046875 L 311.632812 251.046875 L 311.632812 248.90625 L 310.84375 249.699219 L 322.035156 249.699219 L 321.246094 248.90625 L 321.246094 257.183594 L 322.035156 256.394531 L 310.84375 256.394531 L 311.632812 257.183594 L 311.632812 250.980469 L 310.050781 250.980469 "/><path style=" stroke:none;fill-rule:nonzero;fill:#000000;fill-opacity:1;" d="M 108.816406 286.996094 C 109.203125 256.257812 103.734375 246.050781 99.078125 242.914062 C 95.945312 240.792969 93.269531 241.871094 93.15625 241.910156 L 93.765625 243.378906 L 93.757812 243.378906 C 93.839844 243.34375 95.820312 242.59375 98.246094 244.257812 C 101.769531 246.6875 107.625 255.457031 107.230469 286.976562 L 108.816406 286.996094 "/><path style=" stroke:none;fill-rule:nonzero;fill:#000000;fill-opacity:1;" d="M 288.367188 242.398438 C 288.253906 242.351562 285.582031 241.28125 282.441406 243.398438 C 277.785156 246.539062 272.324219 256.746094 272.703125 287.480469 L 274.292969 287.460938 C 273.894531 255.945312 279.746094 247.175781 283.273438 244.746094 C 285.703125 243.074219 287.679688 243.832031 287.757812 243.867188 L 288.367188 242.398438 "/><path style=" stroke:none;fill-rule:nonzero;fill:#000000;fill-opacity:1;" d="M 94.097656 243.441406 L 288.496094 243.441406 L 288.496094 241.851562 L 94.097656 241.851562 L 94.097656 243.441406 "/><path style=" stroke:none;fill-rule:nonzero;fill:#000000;fill-opacity:1;" d="M 121.539062 267.410156 L 121.539062 285.039062 L 134.316406 285.039062 L 134.316406 261.007812 L 121.539062 261.007812 L 121.539062 267.585938 L 123.121094 267.585938 L 123.121094 261.800781 L 122.324219 262.589844 L 133.523438 262.589844 L 132.730469 261.800781 L 132.730469 284.246094 L 133.523438 283.457031 L 122.324219 283.457031 L 123.121094 284.246094 L 123.121094 267.410156 L 121.539062 267.410156 "/><path style=" stroke:none;fill-rule:nonzero;fill:#000000;fill-opacity:1;" d="M 121.375 251.34375 L 121.375 258.34375 L 134.152344 258.34375 L 134.152344 248.480469 L 121.375 248.480469 L 121.375 251.40625 L 122.960938 251.40625 L 122.960938 249.273438 L 122.167969 250.070312 L 133.359375 250.070312 L 132.570312 249.273438 L 132.570312 257.550781 L 133.359375 256.757812 L 122.167969 256.757812 L 122.960938 257.550781 L 122.960938 251.34375 L 121.375 251.34375 "/><path style=" stroke:none;fill-rule:nonzero;fill:#000000;fill-opacity:1;" d="M 152.4375 267.703125 L 152.4375 285.335938 L 165.214844 285.335938 L 165.214844 261.300781 L 152.4375 261.300781 L 152.4375 267.878906 L 154.023438 267.878906 L 154.023438 262.089844 L 153.230469 262.882812 L 164.421875 262.882812 L 163.632812 262.089844 L 163.632812 284.546875 L 164.421875 283.753906 L 153.230469 283.753906 L 154.023438 284.546875 L 154.023438 267.703125 L 152.4375 267.703125 "/><path style=" stroke:none;fill-rule:nonzero;fill:#000000;fill-opacity:1;" d="M 152.277344 251.636719 L 152.277344 258.632812 L 165.058594 258.632812 L 165.058594 248.78125 L 152.277344 248.78125 L 152.277344 251.703125 L 153.859375 251.703125 L 153.859375 249.570312 L 153.066406 250.363281 L 164.269531 250.363281 L 163.476562 249.570312 L 163.476562 257.839844 L 164.269531 257.050781 L 153.066406 257.050781 L 153.859375 257.839844 L 153.859375 251.636719 L 152.277344 251.636719 "/><path style=" stroke:none;fill-rule:nonzero;fill:#000000;fill-opacity:1;" d="M 183.847656 267.316406 L 183.847656 284.945312 L 196.621094 284.945312 L 196.621094 260.90625 L 183.847656 260.90625 L 183.847656 267.492188 L 185.429688 267.492188 L 185.429688 261.699219 L 184.636719 262.492188 L 195.832031 262.492188 L 195.039062 261.699219 L 195.039062 284.152344 L 195.832031 283.359375 L 184.636719 283.359375 L 185.429688 284.152344 L 185.429688 267.316406 L 183.847656 267.316406 "/><path style=" stroke:none;fill-rule:nonzero;fill:#000000;fill-opacity:1;" d="M 183.683594 251.25 L 183.683594 258.242188 L 196.46875 258.242188 L 196.46875 248.386719 L 183.683594 248.386719 L 183.683594 251.308594 L 185.273438 251.308594 L 185.273438 249.179688 L 184.476562 249.96875 L 195.675781 249.96875 L 194.882812 249.179688 L 194.882812 257.449219 L 195.675781 256.65625 L 184.476562 256.65625 L 185.273438 257.449219 L 185.273438 251.25 L 183.683594 251.25 "/><path style=" stroke:none;fill-rule:nonzero;fill:#000000;fill-opacity:1;" d="M 216.777344 267.316406 L 216.777344 284.945312 L 229.554688 284.945312 L 229.554688 260.90625 L 216.777344 260.90625 L 216.777344 267.492188 L 218.359375 267.492188 L 218.359375 261.699219 L 217.566406 262.492188 L 228.761719 262.492188 L 227.96875 261.699219 L 227.96875 284.152344 L 228.761719 283.359375 L 217.566406 283.359375 L 218.359375 284.152344 L 218.359375 267.316406 L 216.777344 267.316406 "/><path style=" stroke:none;fill-rule:nonzero;fill:#000000;fill-opacity:1;" d="M 216.613281 251.25 L 216.613281 258.242188 L 229.398438 258.242188 L 229.398438 248.386719 L 216.613281 248.386719 L 216.613281 251.308594 L 218.195312 251.308594 L 218.195312 249.179688 L 217.40625 249.96875 L 228.597656 249.96875 L 227.808594 249.179688 L 227.808594 257.449219 L 228.597656 256.65625 L 217.40625 256.65625 L 218.195312 257.449219 L 218.195312 251.25 L 216.613281 251.25 "/><path style=" stroke:none;fill-rule:nonzero;fill:#000000;fill-opacity:1;" d="M 245.265625 267.214844 L 245.265625 284.851562 L 258.050781 284.851562 L 258.050781 260.8125 L 245.265625 260.8125 L 245.265625 267.390625 L 246.851562 267.390625 L 246.851562 261.605469 L 246.058594 262.394531 L 257.257812 262.394531 L 256.464844 261.605469 L 256.464844 284.058594 L 257.257812 283.257812 L 246.058594 283.257812 L 246.851562 284.058594 L 246.851562 267.214844 L 245.265625 267.214844 "/><path style=" stroke:none;fill-rule:nonzero;fill:#000000;fill-opacity:1;" d="M 245.109375 251.148438 L 245.109375 258.144531 L 257.886719 258.144531 L 257.886719 248.292969 L 245.109375 248.292969 L 245.109375 251.214844 L 246.695312 251.214844 L 246.695312 249.085938 L 245.902344 249.875 L 257.097656 249.875 L 256.304688 249.085938 L 256.304688 257.355469 L 257.097656 256.5625 L 245.902344 256.5625 L 246.695312 257.355469 L 246.695312 251.148438 L 245.109375 251.148438 "/><path style=" stroke:none;fill-rule:nonzero;fill:#000000;fill-opacity:1;" d="M 127.492188 184.625 L 127.492188 191.621094 L 140.269531 191.621094 L 140.269531 181.761719 L 127.492188 181.761719 L 127.492188 184.691406 L 129.078125 184.691406 L 129.078125 182.554688 L 128.285156 183.34375 L 139.480469 183.34375 L 138.6875 182.554688 L 138.6875 190.832031 L 139.480469 190.039062 L 128.285156 190.039062 L 129.078125 190.832031 L 129.078125 184.625 L 127.492188 184.625 "/><path style=" stroke:none;fill-rule:nonzero;fill:#000000;fill-opacity:1;" d="M 155.355469 184.136719 L 155.355469 191.132812 L 168.132812 191.132812 L 168.132812 181.273438 L 155.355469 181.273438 L 155.355469 184.203125 L 156.9375 184.203125 L 156.9375 182.066406 L 156.148438 182.859375 L 167.339844 182.859375 L 166.546875 182.066406 L 166.546875 190.34375 L 167.339844 189.550781 L 156.148438 189.550781 L 156.9375 190.34375 L 156.9375 184.136719 L 155.355469 184.136719 "/><path style=" stroke:none;fill-rule:nonzero;fill:#000000;fill-opacity:1;" d="M 184.164062 184.136719 L 184.164062 191.132812 L 196.949219 191.132812 L 196.949219 181.273438 L 184.164062 181.273438 L 184.164062 184.203125 L 185.746094 184.203125 L 185.746094 182.066406 L 184.957031 182.859375 L 196.15625 182.859375 L 195.363281 182.066406 L 195.363281 190.34375 L 196.15625 189.550781 L 184.957031 189.550781 L 185.746094 190.34375 L 185.746094 184.136719 L 184.164062 184.136719 "/><path style=" stroke:none;fill-rule:nonzero;fill:#000000;fill-opacity:1;" d="M 213.296875 184.136719 L 213.296875 191.132812 L 226.074219 191.132812 L 226.074219 181.273438 L 213.296875 181.273438 L 213.296875 184.203125 L 214.882812 184.203125 L 214.882812 182.066406 L 214.089844 182.859375 L 225.28125 182.859375 L 224.492188 182.066406 L 224.492188 190.34375 L 225.28125 189.550781 L 214.089844 189.550781 L 214.882812 190.34375 L 214.882812 184.136719 L 213.296875 184.136719 "/><path style=" stroke:none;fill-rule:nonzero;fill:#000000;fill-opacity:1;" d="M 241.789062 183.648438 L 241.789062 190.648438 L 254.570312 190.648438 L 254.570312 180.789062 L 241.789062 180.789062 L 241.789062 183.710938 L 243.371094 183.710938 L 243.371094 181.585938 L 242.578125 182.378906 L 253.78125 182.378906 L 252.980469 181.585938 L 252.980469 189.855469 L 253.78125 189.0625 L 242.578125 189.0625 L 243.371094 189.855469 L 243.371094 183.648438 L 241.789062 183.648438 "/><path style=" stroke:none;fill-rule:nonzero;fill:#000000;fill-opacity:1;" d="M 142.96875 104.675781 C 143.113281 104.246094 157.480469 61.679688 185.289062 61.371094 L 185.265625 59.785156 C 156.328125 60.109375 142.058594 102.378906 141.46875 104.179688 L 142.96875 104.675781 "/><path style=" stroke:none;fill-rule:nonzero;fill:#000000;fill-opacity:1;" d="M 240.949219 104.425781 C 240.355469 102.625 226.082031 60.355469 197.144531 60.03125 L 197.128906 61.613281 C 224.929688 61.925781 239.296875 104.492188 239.441406 104.925781 L 240.949219 104.425781 "/><path style=" stroke:none;fill-rule:nonzero;fill:#000000;fill-opacity:1;" d="M 124.960938 166.015625 L 124.960938 202.207031 L 126.546875 202.207031 L 126.546875 166.015625 L 124.960938 166.015625 "/><path style=" stroke:none;fill-rule:nonzero;fill:#000000;fill-opacity:1;" d="M 139.003906 165.230469 L 139.003906 201.800781 L 140.589844 201.800781 L 140.589844 165.230469 L 139.003906 165.230469 "/><path style=" stroke:none;fill-rule:nonzero;fill:#000000;fill-opacity:1;" d="M 153.777344 164.34375 L 153.777344 201.3125 L 155.363281 201.3125 L 155.363281 164.34375 L 153.777344 164.34375 "/><path style=" stroke:none;fill-rule:nonzero;fill:#000000;fill-opacity:1;" d="M 167.8125 163.550781 L 167.8125 200.90625 L 169.398438 200.90625 L 169.398438 163.550781 L 167.8125 163.550781 "/><path style=" stroke:none;fill-rule:nonzero;fill:#000000;fill-opacity:1;" d="M 182.695312 163.839844 L 182.695312 200.414062 L 184.277344 200.414062 L 184.277344 163.839844 L 182.695312 163.839844 "/><path style=" stroke:none;fill-rule:nonzero;fill:#000000;fill-opacity:1;" d="M 196.730469 163.441406 L 196.730469 200.011719 L 198.3125 200.011719 L 198.3125 163.441406 L 196.730469 163.441406 "/><path style=" stroke:none;fill-rule:nonzero;fill:#000000;fill-opacity:1;" d="M 212.242188 163.726562 L 212.242188 200.691406 L 213.824219 200.691406 L 213.824219 163.726562 L 212.242188 163.726562 "/><path style=" stroke:none;fill-rule:nonzero;fill:#000000;fill-opacity:1;" d="M 226.285156 164.105469 L 226.285156 201.074219 L 227.867188 201.074219 L 227.867188 164.105469 L 226.285156 164.105469 "/><path style=" stroke:none;fill-rule:nonzero;fill:#000000;fill-opacity:1;" d="M 241.058594 164.851562 L 241.058594 201.421875 L 242.640625 201.421875 L 242.640625 164.851562 L 241.058594 164.851562 "/><path style=" stroke:none;fill-rule:nonzero;fill:#000000;fill-opacity:1;" d="M 255.101562 166.394531 L 255.101562 202.578125 L 256.683594 202.578125 L 256.683594 166.394531 L 255.101562 166.394531 "/></g></svg>